<?xml version="1.0" encoding="UTF-8"?><svg id="b" xmlns="http://www.w3.org/2000/svg" viewBox="0 0 252.32 281.69"><g id="c"><path d="M240.82,0c7.68,3.14,9.67,6.14,9.67,14.56,0,11.15.03,22.3-.03,33.44-.01,1.89-.2,3.85-.76,5.64-1.74,5.57-6.16,8.28-12.34,7.86-4.89-.33-8.97-4.15-9.98-9.35-.08-.41-.16-.82-.16-1.24-.01-13.3-.21-26.61.07-39.91.12-5.91,3.91-9.44,9.53-11h4ZM235.78,30.87c0,5.65-.03,11.31.02,16.96.01,1.14.08,2.41.59,3.38.42.8,1.57,1.74,2.33,1.69.91-.06,2.05-.95,2.53-1.79.53-.94.55-2.24.56-3.39.04-11.31.03-22.62.02-33.93,0-3.32-1.17-5.22-3.08-5.18-1.89.04-2.94,1.88-2.95,5.28-.02,5.65,0,11.31,0,16.96Z" style="fill:#543019; stroke-width:0px;"/><path d="M71.82,0c7.65,3.18,9.67,6.26,9.67,14.84,0,10.9.04,21.8-.03,32.7-.01,2.05-.2,4.2-.81,6.14-1.75,5.57-6.15,8.25-12.35,7.82-4.89-.34-8.98-4.15-9.93-9.38-.28-1.54-.39-3.14-.4-4.71-.03-10.98-.02-21.97-.02-32.95,0-8.19,2.29-11.55,9.86-14.45h4ZM66.78,30.88c0,5.74-.03,11.47.03,17.21.01,1.13.14,2.39.65,3.36.38.73,1.49,1.54,2.23,1.49.88-.06,2.05-.81,2.46-1.59.54-1.04.62-2.4.62-3.63.04-11.22.03-22.45.02-33.67,0-.58.04-1.18-.07-1.74-.34-1.75-.74-3.69-3.02-3.62-2.21.07-2.68,1.91-2.88,3.73-.07.66-.03,1.33-.03,1.99,0,5.49,0,10.98,0,16.46Z" style="fill:#543019; stroke-width:0px;"/><path d="M252.32,280.97h-22.32v-67.49h22.32v10h-12.39v18.5h8.74v9.76h-8.74v19.23h12.39v10Z" style="fill:#543019; stroke-width:0px;"/><path d="M212.32,0c7.68,2.7,10.95,7.82,10.01,16-2.64.25-5.33.5-8.1.76-.32-2.08-.52-3.97-.94-5.81-.35-1.53-1.19-2.86-3.02-2.79-1.88.07-2.4,1.52-2.71,3.08-.71,3.54.08,6.82,2.01,9.77,2.73,4.18,5.56,8.3,8.43,12.38,3.88,5.51,5.54,11.5,4.12,18.18-1.4,6.59-5.39,9.94-11.79,9.95-6.76.01-10.3-2.87-11.72-9.81-.49-2.4-.56-4.89-.85-7.52,3.01-.29,5.63-.54,8.58-.82.17,1.87.27,3.57.49,5.26.42,3.26,1.71,4.94,3.66,4.9,2.09-.04,3.22-1.86,3.46-5.27.29-4.29-1.82-7.66-4.06-11.01-2.91-4.35-6.08-8.57-8.55-13.17-1.44-2.69-2.23-5.97-2.43-9.03-.52-8.04,2.14-11.97,9.41-15.07h4Z" style="fill:#543019; stroke-width:0px;"/><path d="M16.32,0c7.59,3,10.55,7.73,9.77,16-2.63.25-5.31.5-8.11.77-.3-1.99-.47-3.8-.88-5.57-.37-1.6-1.13-3.14-3.09-3.04-2.11.11-2.58,1.79-2.78,3.54-.37,3.25.1,6.32,1.94,9.08,3.22,4.85,6.49,9.67,9.72,14.52,3.37,5.07,4.11,10.6,2.9,16.5-1.74,8.5-10.68,12.65-18.21,8.3-1.31-.76-2.47-2-3.32-3.27-2.07-3.11-2.93-8.57-2.21-12.68,2.57-.25,5.2-.5,7.98-.77.24,2.1.38,4.07.72,6,.35,2,.84,4.16,3.47,4.13,2.66-.03,3-2.28,3.37-4.24.8-4.29-1.23-7.77-3.41-11.16-3.11-4.82-6.58-9.43-9.3-14.45-1.45-2.67-2.13-5.99-2.32-9.06C2.09,6.97,5.15,2.71,12.32,0h4Z" style="fill:#543019; stroke-width:0px;"/><path d="M171.82,0c7.76,2.64,10.84,7.32,10.26,15.97-2.62.27-5.3.54-8.17.83-.31-1.96-.51-3.75-.88-5.51-.37-1.73-1.19-3.28-3.28-3.09-1.97.17-2.33,1.79-2.6,3.45-.59,3.67.41,6.94,2.39,9.95,3.16,4.79,6.48,9.48,9.58,14.31,3.51,5.46,3.96,11.4,2.13,17.51-1.64,5.5-5.59,8.16-11.7,8.11-5.92-.04-9.41-2.55-10.9-8.29-.74-2.85-.88-5.85-1.33-9.03,3.14-.29,5.83-.54,8.61-.8.32,2.45.47,4.68.93,6.85.35,1.64,1.02,3.3,3.16,3.28,2.22-.02,2.91-1.62,3.32-3.42.76-3.34.14-6.52-1.67-9.34-2.42-3.78-5.09-7.41-7.61-11.13-2.58-3.81-5.08-7.78-5.37-12.47-.2-3.17.13-6.49.9-9.57,1.04-4.11,4.36-6.28,8.22-7.61h4Z" style="fill:#543019; stroke-width:0px;"/><path d="M181.27,107.21v49.52h-11.73v-87.81c3.6,0,7.24-.09,10.85.1.55.03,1.3,1.29,1.51,2.1,3.84,14.46,7.61,28.95,11.41,43.42.36,1.39.8,2.75,1.2,4.13.21-.04.42-.07.63-.11v-49.44h11.61v87.81c-3.14,0-6.36.09-9.56-.09-.53-.03-1.25-1.13-1.46-1.85-4.48-15.41-8.9-30.83-13.33-46.25-.15-.54-.35-1.06-.53-1.59-.2.02-.4.04-.6.05Z" style="fill:#543019; stroke-width:0px;"/><path d="M83.59,69.14c5.98,0,11.84-.47,17.6.11,9.07.91,14.63,6.14,16.64,15.11,1.9,8.47,1.95,16.87-2.55,24.71-.82,1.43-1.69,3.03-2.97,3.96-2.17,1.59-2.06,3.31-1.56,5.61,2.7,12.34,5.25,24.72,7.84,37.09.07.32.08.65.14,1.1h-12.73c-1.22-6.16-2.44-12.33-3.66-18.5-1.1-5.55-2.22-11.09-3.26-16.64-.28-1.52-.81-2.32-2.69-1.61v36.69h-12.8v-87.63ZM96.48,81.6v26.09c4.89-.03,8.01-2.01,8.68-6.61.61-4.19.6-8.61-.01-12.8-.67-4.62-3.34-6.32-8.67-6.67Z" style="fill:#543019; stroke-width:0px;"/><path d="M125.79,112.79c0-8.66-.09-17.33.06-25.99.05-2.62.41-5.36,1.26-7.83,2.69-7.83,9.27-11.69,18.07-10.96,7.29.6,13.22,6.38,14.57,14.27.27,1.55.47,3.14.47,4.71.03,17.25.04,34.49,0,51.74,0,4.95-1.18,9.61-4.47,13.46-4.52,5.3-10.42,6.61-16.98,5.22-6.08-1.28-9.95-5.26-11.81-11.03-.78-2.41-1.08-5.06-1.12-7.6-.13-8.66-.05-17.33-.05-25.99ZM147.32,112.94c0-8.49.02-16.98-.02-25.47,0-1.31-.19-2.66-.55-3.92-.52-1.79-1.61-3.11-3.7-3.13-2.19-.02-3.37,1.29-3.88,3.22-.33,1.27-.53,2.62-.54,3.93-.03,16.9-.05,33.79.01,50.69,0,1.63.17,3.46.94,4.81.62,1.09,2.27,2.21,3.45,2.2,1.16-.01,2.73-1.19,3.37-2.28.74-1.27.87-3.02.88-4.56.08-8.49.04-16.98.04-25.47Z" style="fill:#543019; stroke-width:0px;"/><path d="M250.49,100.31h-12.76c0-4.17.08-8.3-.04-12.43-.05-1.72-.17-3.61-.93-5.07-.56-1.09-2.2-2.21-3.37-2.23-1.17-.02-2.82,1.06-3.44,2.14-.78,1.35-1,3.17-1.01,4.79-.07,17.32-.06,34.64,0,51.96,0,1.54.17,3.33.96,4.55.72,1.13,2.38,2.25,3.64,2.27,1.11.02,2.66-1.26,3.28-2.37.72-1.29.83-3.03.87-4.58.11-3.74-.1-7.5.09-11.24.12-2.36-.53-3.43-3-3.07-.63.09-1.3-.07-2.1-.13v-11.68h17.61v43.52h-7.29c-.47-1.28-.98-2.65-1.52-4.12-.33.16-.61.21-.71.37-4.78,7.34-18.31,6.67-22.38-3.02-1.35-3.21-2.1-6.9-2.14-10.38-.21-17.74-.14-35.48-.08-53.21.03-8.93,4.75-15.75,12.12-17.85,10.34-2.94,19.77,3.06,21.86,13.97.26,1.38.31,2.82.33,4.23.04,4.48.01,8.95.01,13.57Z" style="fill:#543019; stroke-width:0px;"/><path d="M0,132.38c4.55-.44,8.51-.82,12.88-1.24.11,1.6.12,3.15.34,4.66.35,2.38.64,4.79,1.33,7.08.58,1.91,1.94,3.26,4.25,3.19,2.25-.08,3.51-1.33,4.18-3.31,1.56-4.56,1.47-9.18-.96-13.3-3.25-5.5-6.94-10.74-10.54-16.03-4.14-6.08-8.21-12.2-9.38-19.64-1.06-6.73-.6-13.32,3.39-19.19,3.86-5.67,9.48-7.28,15.96-6.55,5.93.67,10.23,3.71,12.63,9.25,1.88,4.35,2.5,8.92,2.36,13.86-4.13.4-8.16.78-12.32,1.18-.22-2.09-.43-4.05-.64-6.02-.05-.5-.11-1-.22-1.48-.78-3.55-2.4-5.28-4.79-5.15-2.48.13-3.73,1.87-4.12,5.65-.49,4.73.5,9.14,3.12,13.09,4,6.03,8.15,11.96,12.2,17.97,3.76,5.58,7.07,11.44,6.8,18.42-.16,4.11-.53,8.38-1.83,12.24-2.61,7.74-8.92,11.28-17.69,10.81-7.94-.43-12.96-4.3-14.97-12.26-1.06-4.22-1.31-8.64-1.96-13.24Z" style="fill:#543019; stroke-width:0px;"/><path d="M95.74,280.93c-2.39,0-4.63.14-6.84-.09-.65-.07-1.49-1.11-1.72-1.87-3.31-11.24-6.53-22.51-9.78-33.77-.22-.76-.47-1.51-1.26-2.19v37.81h-8.94v-67.38c2.71,0,5.29-.15,7.83.1.66.06,1.54,1.26,1.76,2.08,2.91,10.84,5.72,21.7,8.56,32.56.28,1.09.63,2.16,1.43,3.17v-37.7h8.96v67.26Z" style="fill:#543019; stroke-width:0px;"/><path d="M65.13,156.88h-12.72v-74.71h-12.28v-13.09h37.03v12.88h-12.04v74.92Z" style="fill:#543019; stroke-width:0px;"/><path d="M146.25,252.68v28.08h-9.72v-67.57c5.22.28,10.39.21,15.44.94,4.76.68,8.2,3.74,9.79,8.32,2.67,7.7,2.85,15.33-1.52,22.6-.13.21-.24.48-.43.61-3.65,2.47-2.65,5.8-1.88,9.22,1.82,8.11,3.48,16.26,5.2,24.4.1.47.07.96.11,1.55h-9.61c-.92-4.67-1.86-9.37-2.79-14.08-.82-4.16-1.61-8.33-2.5-12.48-.16-.73-.74-1.37-1.12-2.06-.33.16-.65.31-.98.47ZM146.39,243.1c3.59,0,5.51-1.22,6.47-4.38,1.14-3.73,1.13-7.54-.07-11.26-.98-3.03-2.82-4.14-6.4-4.11v19.75Z" style="fill:#543019; stroke-width:0px;"/><path d="M33.64,247.19c0-6.25-.04-12.49.03-18.74.02-1.9.12-3.85.56-5.69,1.55-6.51,6.6-10.37,13-10.13,6.59.25,11.5,4.71,12.53,11.39.04.25.07.5.07.75,0,14.98.22,29.97-.13,44.95-.12,5.43-3.24,9.67-8.75,11.27-5.13,1.49-9.94.75-13.72-3.44-2.2-2.43-3.4-5.37-3.45-8.63-.09-7.24-.03-14.49-.03-21.73-.04,0-.08,0-.12,0ZM50.23,247.26c0-6.41.04-12.81-.03-19.22-.01-1.3-.14-2.75-.72-3.85-.45-.86-1.71-1.77-2.61-1.77-.9,0-2.19.89-2.62,1.75-.61,1.2-.8,2.71-.8,4.09-.06,12.65-.06,25.29,0,37.94,0,1.45.32,3.02.96,4.3.38.75,1.69,1.45,2.56,1.42.86-.03,2.07-.82,2.44-1.6.58-1.22.78-2.71.79-4.09.08-6.32.03-12.65.03-18.97Z" style="fill:#543019; stroke-width:0px;"/><path d="M129.19,258.09c0,3.89.32,7.66-.07,11.35-.79,7.66-6.31,12.45-13.53,12.18-7.36-.28-12.45-5.16-12.59-13.08-.26-14.24-.37-28.49.04-42.72.3-10.71,10.62-16.51,19.53-11.45,3.99,2.27,6.1,5.95,6.51,10.37.35,3.78.07,7.61.07,11.57h-9c0-1.14.02-2.19,0-3.24-.05-2.41-.02-4.83-.22-7.23-.18-2.14-1.25-3.62-3.66-3.56-2.34.06-3.01,1.72-3.41,3.63-.03.16-.05.33-.05.5,0,13.82-.04,27.65.03,41.47.01,2.6,1.44,4.07,3.42,4.16,2.22.09,3.55-1.14,3.73-4.05.2-3.22.04-6.47.04-9.91h9.17Z" style="fill:#543019; stroke-width:0px;"/><path d="M26.77,236.38h-8.92c0-2.79,0-5.58,0-8.37-.01-3.93-1.13-5.68-3.66-5.73-2.5-.05-3.69,1.7-3.7,5.68-.02,12.82,0,25.64,0,38.46,0,.08,0,.17,0,.25.1,3.66,1.36,5.43,3.81,5.36,2.35-.07,3.52-1.8,3.55-5.33.02-2.82,0-5.63,0-8.64h9.45c-.24,4.52-.02,8.98-.82,13.25-1.33,7.1-6.95,10.82-14.32,10.19-6.4-.54-10.99-5.43-11.33-12.42-.23-4.73-.11-9.49-.11-14.23-.01-9.24,0-18.48,0-27.72,0-3.69.81-7.13,3.24-9.98,3.62-4.26,8.35-5.41,13.56-3.97,5.34,1.47,8.45,5.42,9.15,10.75.53,3.99.1,8.1.1,12.44Z" style="fill:#543019; stroke-width:0px;"/><path d="M103.18,60.77c-1.1-5.56-2.21-11.17-3.33-16.79-.45-2.28-.86-4.58-1.41-6.84-.14-.59-.72-1.07-1.1-1.6-.28.59-.81,1.18-.81,1.77-.06,6.83-.04,13.66-.04,20.49,0,.97,0,1.94,0,3.03h-8.45V1.16c4.4,0,8.77-.47,12.99.11,6.32.87,10.13,5.84,10.77,12.9.6,6.59.03,12.82-5.17,17.78-.5.47-.37,1.85-.19,2.74,1.66,8.15,3.41,16.28,5.12,24.42.1.48.16.97.27,1.66h-8.65ZM96.64,27.35c2.66.07,4.52-.83,5.41-2.93,1.72-4.09,1.72-8.29-.18-12.33-1-2.13-3.18-2.85-5.23-2.09v17.35Z" style="fill:#543019; stroke-width:0px;"/><path d="M169.41,280.74v-67.15h22.2v9.81h-12.3v18.37h8.79v9.9h-8.84v19.19h12.4v9.87h-22.26Z" style="fill:#543019; stroke-width:0px;"/><path d="M165.58,161.57h8.26c1.3,8.27,2.6,16.51,3.9,24.75l.42-.05c1.27-8.18,2.55-16.36,3.84-24.65h8.19v45.14h-5.79v-29.69c-.2-.02-.4-.04-.6-.06-1.39,9.87-2.77,19.74-4.18,29.76h-3.38c-1.37-9.79-2.73-19.57-4.1-29.34-.17,0-.33.01-.5.02v29.35h-6.07v-45.23Z" style="fill:#543019; stroke-width:0px;"/><path d="M206,223.44h-9.3v-9.89h28.29v9.89h-9.11v57.3h-9.87v-57.3Z" style="fill:#543019; stroke-width:0px;"/><path d="M132.74.99h19.86v8.71h-11.14v16.29h7.82v8.88h-7.81v17.01h11.13v8.9h-19.86V.99Z" style="fill:#543019; stroke-width:0px;"/><path d="M45.84,60.89h-8.75V9.83h-8.17V1.03h25.18v8.68h-8.26v51.18Z" style="fill:#543019; stroke-width:0px;"/><path d="M209.79,182.81c4.54,5.44,5.58,13.73,2.32,19.28-3.96,6.73-10.54,4.42-16.52,4.88v-45.68c3.65.24,7.22.2,10.69.77,3.49.57,5.8,2.97,6.56,6.43,1.13,5.18,1.35,10.28-3.05,14.31ZM202.28,200.22c3.76.54,5.25-2.77,4.8-8.34-.35-4.34-1.62-5.63-4.8-5.18v13.51ZM202.26,179.99c3.55-.02,4.87-1.66,4.92-5.81.05-4.17-1.39-5.97-4.92-5.98v11.79Z" style="fill:#543019; stroke-width:0px;"/><path d="M34.53,187.23h-5.21v19.55h-6.52v-45.11h6.37v18.41h5.34v-18.47h6.47v45.19h-6.45v-19.56Z" style="fill:#543019; stroke-width:0px;"/><path d="M138.66,206.71c-.39.11-.54.18-.7.19-5.73.3-5.75.3-6.89-5.29-.78-3.83-1.48-7.68-2.25-11.51-.16-.82-.46-1.62-.7-2.42-.28.04-.56.08-.84.11v19h-6.69v-45c3.38,0,6.74-.42,9.94.1,5.13.82,7.82,4.67,8.21,10.71.3,4.56-.43,8.78-3.86,12.2-.43.43-.46,1.52-.31,2.23,1.31,6.52,2.69,13.03,4.08,19.68ZM127.26,168.15v13.19c3.45.6,4.73-2.58,4.86-5.86.14-3.58-.7-7.6-4.86-7.33Z" style="fill:#543019; stroke-width:0px;"/><path d="M142.64,161.61h6.59c0,1.01,0,1.9,0,2.79,0,10.66-.02,21.33.02,31.99,0,1.82-.47,4.44,2.23,4.48,2.73.04,2.3-2.59,2.31-4.41.05-10.66.02-21.33.02-31.99v-2.84h6.28c.08.51.23,1.05.23,1.6.01,11.58.07,23.16-.01,34.74-.05,6.86-5.54,10.99-11.73,9-3.37-1.08-5.69-4.08-5.82-8.19-.19-5.99-.11-11.99-.13-17.99-.01-6.32,0-12.64,0-19.18Z" style="fill:#543019; stroke-width:0px;"/><path d="M125.65,60.84h-8.33V1.02h8.33v59.83Z" style="fill:#543019; stroke-width:0px;"/><path d="M115.99,176.85h-6.46c0-1.93.05-3.74-.01-5.55-.06-1.75-.01-3.83-2.49-3.83-2.51,0-2.46,2.17-2.48,3.86-.08,6.49-.04,12.98-.04,19.48,0,2.33-.07,4.67.08,6.99.1,1.49.37,3.19,2.42,3.18,2.15-.01,2.44-1.69,2.5-3.34.07-1.97.02-3.95.02-6.05h6.59c-.43,3.6-.46,7.11-1.34,10.39-1.01,3.76-4.49,5.66-8.55,5.47-3.78-.18-6.84-2.59-7.78-6.27-.33-1.28-.51-2.63-.51-3.94-.04-8.66-.06-17.31.01-25.97.01-1.55.24-3.18.76-4.64,1.34-3.77,4.48-5.74,8.51-5.61,3.83.12,7.04,2.44,7.92,6.4.65,2.96.58,6.08.86,9.45Z" style="fill:#543019; stroke-width:0px;"/><path d="M243.06,168.26v12.2h5.92v6.66c-1.88.09-3.83.18-5.92.28v12.61h8.34v6.79h-14.86v-45.15h15.05c0,1.79.12,3.6-.08,5.37-.05.47-1.04,1.16-1.64,1.2-2.21.14-4.44.06-6.81.06Z" style="fill:#543019; stroke-width:0px;"/><path d="M52.93,200.06h8.21v6.71h-14.73v-45.08h14.75v6.5h-8.18v12.32h5.75v6.69h-5.8v12.86Z" style="fill:#543019; stroke-width:0px;"/><path d="M64.99,161.64q6.33-.46,7.63,5.18c.79,3.46,1.55,6.93,2.42,10.8,1.1-4.88,2.19-9.31,3.05-13.79.35-1.82,1.03-2.61,2.92-2.37,1.22.15,2.47.03,4.19.03-4.07,14.94-9.07,29.51-6.4,45.45-1.69,0-2.74,0-3.79,0-.98,0-1.96,0-2.73,0-.5-7.83-.42-15.5-1.62-22.96-1.21-7.5-3.69-14.8-5.66-22.33Z" style="fill:#543019; stroke-width:0px;"/><path d="M13.2,206.82h-6.73v-38.49H.43v-6.71h18.83v6.52h-6.05v38.67Z" style="fill:#543019; stroke-width:0px;"/><path d="M224.7,200.89h8.62v5.86h-15.06v-45.07h6.45v39.22Z" style="fill:#543019; stroke-width:0px;"/></g></svg>